# 3ds Max Wavefront OBJ Exporter v0.97b - (c)2007 guruware
# File Created: 16.10.2017 16:51:04

mtllib weaponMount.mtl

#
# object Box001
#

v  -0.2505 0.0000 -1.4128
v  -0.2505 -0.0000 -2.9528
v  2.9134 0.0000 -2.9528
v  2.9134 0.0000 -1.4128
v  -0.2505 5.9055 -1.4128
v  2.9134 5.9055 -1.4128
v  2.9134 5.9055 -2.9528
v  -0.2505 5.9055 -2.9528
v  -0.2505 0.2789 -1.5770
v  2.9134 0.2789 -1.5770
v  2.9134 5.6266 -1.5770
v  -0.2505 5.6266 -1.5770
v  4.5044 1.9451 -2.9528
v  4.5044 1.9451 -1.4128
v  4.5044 3.9604 -1.4128
v  4.5044 3.9604 -2.9528
v  4.2255 2.0447 -1.5770
v  4.2255 3.8608 -1.5770
v  -3.4144 0.0000 -1.4128
v  -3.4144 0.0000 -2.9528
v  -3.4144 5.9055 -2.9528
v  -3.4144 5.9055 -1.4128
v  -3.4144 5.6266 -1.5770
v  -3.4144 0.2789 -1.5770
v  -5.0055 1.9451 -1.4128
v  -5.0055 1.9451 -2.9528
v  -5.0055 3.9604 -2.9528
v  -5.0055 3.9604 -1.4128
v  -4.7266 3.8608 -1.5770
v  -4.7266 2.0447 -1.5770
# 30 vertices

vn 0.0000 -0.4963 0.8681
vn 0.0000 -0.7071 -0.7071
vn 0.3352 -0.7074 -0.6223
vn 0.3042 -0.5535 0.7753
vn 0.0000 0.4963 0.8681
vn 0.3042 0.5535 0.7753
vn 0.3353 0.7074 -0.6222
vn 0.0000 0.7071 -0.7071
vn -0.0000 0.2629 0.9648
vn -0.2320 0.3129 0.9210
vn -0.2320 -0.3129 0.9210
vn 0.0000 -0.2629 0.9648
vn 0.7247 -0.2587 -0.6387
vn 0.5860 -0.2091 0.7829
vn 0.5860 0.2091 0.7829
vn 0.7247 0.2586 -0.6387
vn -0.2824 0.0917 0.9549
vn -0.2824 -0.0917 0.9549
vn -0.3042 -0.5535 0.7753
vn -0.3352 -0.7074 -0.6223
vn -0.3353 0.7074 -0.6222
vn -0.3042 0.5535 0.7753
vn 0.2320 -0.3129 0.9210
vn 0.2320 0.3129 0.9210
vn -0.5860 -0.2091 0.7829
vn -0.7247 -0.2587 -0.6387
vn -0.7247 0.2586 -0.6387
vn -0.5860 0.2091 0.7829
vn 0.2824 -0.0917 0.9549
vn 0.2824 0.0917 0.9549
# 30 vertex normals

vt 0.7867 0.6671 0.0000
vt 0.7867 0.5674 0.0000
vt 0.9916 0.5674 0.0000
vt 0.9916 0.6671 0.0000
vt 0.7867 0.4572 0.0000
vt 0.9916 0.4572 0.0000
vt 0.9916 0.5569 0.0000
vt 0.7867 0.5569 0.0000
vt 0.6541 0.0573 0.0000
vt 0.8576 0.0598 0.0000
vt 0.8659 0.4031 0.0000
vt 0.6609 0.4065 0.0000
vt 0.1131 0.6030 0.0000
vt 0.3179 0.6031 0.0000
vt 0.3177 0.9853 0.0000
vt 0.1129 0.9852 0.0000
vt 0.1721 0.0823 0.0000
vt 0.2718 0.0833 0.0000
vt 0.2701 0.2460 0.0000
vt 0.1704 0.2449 0.0000
vt 0.2670 0.5391 0.0000
vt 0.1673 0.5380 0.0000
vt 0.1690 0.3754 0.0000
vt 0.2687 0.3764 0.0000
vt 0.9478 0.1715 0.0000
vt 0.9512 0.2892 0.0000
vt 0.0099 0.8593 0.0000
vt 0.0099 0.7288 0.0000
vt 0.8574 0.0390 0.0000
vt 0.6529 0.0365 0.0000
vt 0.6610 0.4275 0.0000
vt 0.8708 0.4237 0.0000
vt 0.9676 0.1615 0.0000
vt 0.9724 0.2939 0.0000
vt 0.5819 0.6671 0.0000
vt 0.5819 0.5674 0.0000
vt 0.5819 0.5569 0.0000
vt 0.5819 0.4572 0.0000
vt 0.4576 0.4049 0.0000
vt 0.4490 0.0602 0.0000
vt 0.5228 0.6032 0.0000
vt 0.5226 0.9854 0.0000
vt 0.1697 0.0822 0.0000
vt 0.1680 0.2449 0.0000
vt 0.0683 0.2439 0.0000
vt 0.0700 0.0812 0.0000
vt 0.0652 0.5370 0.0000
vt 0.0669 0.3743 0.0000
vt 0.1666 0.3753 0.0000
vt 0.1649 0.5380 0.0000
vt 0.3673 0.2927 0.0000
vt 0.3640 0.1747 0.0000
vt 0.6257 0.7291 0.0000
vt 0.6257 0.8596 0.0000
vt 0.4448 0.0400 0.0000
vt 0.4578 0.4253 0.0000
vt 0.3443 0.1707 0.0000
vt 0.3485 0.3023 0.0000
# 58 texture coords

o Box001
g Box001
usemtl wire_008008136
s 1
f 1/1/1 2/2/2 3/3/3 4/4/4 
f 5/5/5 6/6/6 7/7/7 8/8/8 
f 9/9/9 10/10/10 11/11/11 12/12/12 
s 2
f 3/13/3 2/14/2 8/15/8 7/16/7 
s 4
f 4/17/4 3/18/3 13/19/13 14/20/14 
f 7/21/7 6/22/6 15/23/15 16/24/16 
s 1
f 11/11/11 10/10/10 17/25/17 18/26/18 
s 2
f 3/13/3 7/16/7 16/27/16 13/28/13 
s 1
f 13/19/13 16/24/16 15/23/15 14/20/14 
s 2
f 4/29/4 10/10/10 9/9/9 1/30/1 
f 5/31/5 12/12/12 11/11/11 6/32/6 
s 8
f 10/10/10 4/29/4 14/33/14 17/25/17 
f 6/32/6 11/11/11 18/26/18 15/34/15 
f 17/25/17 14/33/14 15/34/15 18/26/18 
s 1
f 1/1/1 19/35/19 20/36/20 2/2/2 
f 5/5/5 8/8/8 21/37/21 22/38/22 
f 9/9/9 12/12/12 23/39/23 24/40/24 
s 2
f 20/41/20 21/42/21 8/15/8 2/14/2 
s 4
f 19/43/19 25/44/25 26/45/26 20/46/20 
f 21/47/21 27/48/27 28/49/28 22/50/22 
s 1
f 23/39/23 29/51/29 30/52/30 24/40/24 
s 2
f 20/41/20 26/53/26 27/54/27 21/42/21 
s 1
f 26/45/26 25/44/25 28/49/28 27/48/27 
s 2
f 19/55/19 1/30/1 9/9/9 24/40/24 
f 5/31/5 22/56/22 23/39/23 12/12/12 
s 8
f 24/40/24 30/52/30 25/57/25 19/55/19 
f 22/56/22 28/58/28 29/51/29 23/39/23 
f 30/52/30 29/51/29 28/58/28 25/57/25 
# 28 polygons

