# 3ds Max Wavefront OBJ Exporter v0.97b - (c)2007 guruware
# File Created: 03.11.2017 11:18:58

mtllib Sword5.mtl

#
# object Box001
#

v  77.0684 -5.6513 0.4386
v  86.7786 -5.6513 1.2059
v  88.7139 -33.9129 1.2059
v  77.0684 -33.9129 0.4386
v  77.0684 -33.9129 2.4720
v  88.7139 -33.9129 1.7047
v  86.7786 -5.6513 1.7047
v  77.0684 -5.6513 2.4720
v  64.6205 -33.9129 1.2059
v  64.6205 -33.9129 1.7047
v  67.0106 -5.6513 1.7047
v  67.0106 -5.6513 1.2059
v  77.0684 12.4003 0.4386
v  85.5239 12.4003 1.2059
v  85.5239 12.4003 1.7047
v  77.0684 12.4003 2.4720
v  68.3869 12.4003 1.7047
v  68.3869 12.4003 1.2059
v  77.0684 35.0311 0.4386
v  83.7831 35.0311 1.2059
v  83.7831 35.0311 1.7047
v  77.0684 35.0311 2.4720
v  70.3494 35.0311 1.7047
v  70.3494 35.0311 1.2059
v  77.0684 61.5389 0.4386
v  81.6101 61.5389 1.2059
v  81.6101 61.5389 1.7047
v  77.0684 61.5389 2.4720
v  72.3293 61.5389 1.7047
v  72.3293 61.5389 1.2059
v  77.0684 67.3709 0.4386
v  79.9642 67.3709 1.2059
v  79.9642 67.3709 1.7047
v  77.0684 67.3709 2.4720
v  73.9752 67.3709 1.7047
v  73.9752 67.3709 1.2059
v  77.0684 70.6259 1.2059
v  77.0684 70.6259 1.7047
v  88.7139 -33.9129 -1.4417
v  88.7139 -38.7123 -1.4417
v  82.7211 -38.7123 -1.4417
v  64.6205 -33.9129 4.3523
v  64.4412 -38.7123 4.3523
v  72.1205 -38.7123 4.3523
v  99.0055 -35.1128 1.2059
v  99.0055 -35.1128 1.7047
v  99.0055 -36.8467 1.7047
v  99.0055 -36.8467 1.2059
v  55.9497 -35.1128 1.7047
v  55.9497 -35.1128 1.2059
v  55.9497 -36.8467 1.2059
v  55.9497 -36.8467 1.7047
v  88.7139 -33.9129 0.0172
v  77.0684 -33.9129 0.0172
v  99.0055 -36.8467 0.0172
v  99.0055 -35.1128 0.0172
v  72.1205 -38.7123 1.2059
v  64.4412 -38.7123 1.2059
v  64.4412 -38.7123 0.0172
v  72.1205 -38.7123 0.0172
v  55.9497 -35.1128 0.0172
v  55.9497 -36.8467 0.0172
v  77.0684 -33.9129 2.8934
v  88.7139 -33.9129 2.8934
v  55.9497 -36.8467 2.8934
v  55.9497 -35.1128 2.8934
v  64.4412 -38.7123 1.7047
v  72.1205 -38.7123 1.7047
v  72.1205 -38.7123 2.8934
v  64.4412 -38.7123 2.8934
v  99.0055 -35.1128 2.8934
v  99.0055 -36.8467 2.8934
v  97.0853 -33.8191 1.7047
v  97.0853 -33.8191 1.2059
v  97.0853 -33.8191 2.8934
v  88.7139 -33.9129 4.3523
v  88.7139 -38.7123 4.3523
v  97.0853 -38.1404 4.3523
v  97.0853 -33.8191 4.3523
v  88.7139 -38.7123 2.8934
v  88.7139 -38.7123 1.7047
v  97.0853 -38.1404 1.7047
v  97.0853 -38.1404 2.8934
v  88.7139 -38.7123 1.2059
v  97.0853 -38.1404 1.2059
v  88.7139 -38.7123 0.0172
v  97.0853 -38.1404 0.0172
v  97.0853 -33.8191 -1.4417
v  97.0853 -38.1404 -1.4417
v  97.0853 -33.8191 0.0172
v  57.8699 -33.8191 1.2059
v  57.8699 -33.8191 1.7047
v  64.6205 -33.9129 0.0172
v  57.8699 -33.8191 0.0172
v  64.6205 -33.9129 -1.4417
v  64.4412 -38.7123 -1.4417
v  57.8699 -38.1404 -1.4417
v  57.8699 -33.8191 -1.4417
v  57.8699 -38.1404 1.2059
v  57.8699 -38.1404 0.0172
v  57.8699 -38.1404 1.7047
v  57.8699 -38.1404 2.8934
v  57.8699 -33.8191 4.3523
v  57.8699 -38.1404 4.3523
v  64.6205 -33.9129 2.8934
v  57.8699 -33.8191 2.8934
v  99.0055 -36.8467 4.3523
v  99.0055 -35.1128 4.3523
v  99.0055 -35.1128 -1.4417
v  99.0055 -36.8467 -1.4417
v  55.9497 -36.8467 -1.4417
v  55.9497 -35.1128 -1.4417
v  55.9497 -35.1128 4.3523
v  55.9497 -36.8467 4.3523
v  77.0684 -38.7123 4.3523
v  82.7211 -38.7123 4.3523
v  77.0684 -33.9129 4.3523
v  72.1205 -38.7123 -1.4417
v  82.7211 -38.7123 0.0172
v  82.7211 -38.7123 1.2059
v  82.7211 -38.7123 1.7047
v  82.7211 -38.7123 2.8934
v  77.0684 -38.7123 -1.4417
v  77.0684 -33.9129 -1.4417
v  72.1205 -76.8080 0.0172
v  72.1205 -76.8080 1.2059
v  72.1205 -76.8080 1.7047
v  77.0684 -38.7123 2.8934
v  72.1205 -76.8080 2.8934
v  77.0684 -76.8080 2.8934
v  77.0684 -38.7123 0.0172
v  82.7211 -76.8080 0.0172
v  77.0684 -76.8080 0.0172
v  82.7211 -76.8080 1.2059
v  82.7211 -76.8080 1.7047
v  82.7211 -76.8080 2.8934
v  68.5838 -81.9612 0.0172
v  68.5838 -81.9612 1.2059
v  68.5838 -81.9612 1.7047
v  68.5838 -81.9612 2.8934
v  76.8778 -82.1379 4.7243
v  86.3531 -81.9612 0.0172
v  76.8778 -82.1379 -1.8137
v  86.3531 -81.9612 1.2059
v  86.3531 -81.9612 1.7047
v  86.3531 -81.9612 2.8934
v  77.3503 -89.3402 1.4553
# 147 vertices

vn 0.0014 0.0000 -1.0000
vn 0.7329 0.0506 -0.6785
vn 0.3106 0.9066 -0.2855
vn 0.0015 0.7217 -0.6922
vn 0.0015 0.7217 0.6922
vn 0.3106 0.9066 0.2855
vn 0.7328 0.0506 0.6785
vn 0.0014 -0.0000 1.0000
vn -0.3062 0.9094 -0.2816
vn -0.3062 0.9094 0.2816
vn -0.7304 0.0587 0.6805
vn -0.7304 0.0587 -0.6805
vn 0.0012 0.0000 -1.0000
vn 0.7372 0.0540 -0.6736
vn 0.7372 0.0540 0.6735
vn 0.0012 -0.0000 1.0000
vn -0.7363 0.0600 0.6740
vn -0.7363 0.0600 -0.6740
vn 0.0000 0.0000 -1.0000
vn 0.7444 0.0591 -0.6651
vn 0.7444 0.0591 0.6651
vn 0.0000 -0.0000 1.0000
vn -0.7427 0.0600 0.6669
vn -0.7428 0.0600 -0.6669
vn 0.0034 0.0000 -1.0000
vn 0.7678 0.1374 -0.6257
vn 0.7678 0.1374 0.6257
vn 0.0034 -0.0000 1.0000
vn -0.7668 0.1344 0.6276
vn -0.7668 0.1344 -0.6277
vn 0.0078 0.1135 -0.9935
vn 0.7303 0.3891 -0.5615
vn 0.7302 0.3891 0.5616
vn 0.0078 0.1135 0.9935
vn -0.7220 0.3996 0.5648
vn -0.7220 0.3996 -0.5648
vn 0.0135 0.8610 -0.5084
vn 0.0137 0.8611 0.5083
vn -0.0040 0.7058 -0.7084
vn 0.0244 -0.7142 -0.6995
vn 0.0000 -0.7071 -0.7071
vn 0.0049 0.7056 0.7086
vn -0.0311 -0.7159 0.6975
vn 0.0000 -0.7071 0.7071
vn 0.8828 0.4697 0.0000
vn 0.8829 0.4697 -0.0000
vn 0.8828 -0.4697 -0.0000
vn -0.8828 0.4697 -0.0000
vn -0.8828 0.4697 0.0000
vn -0.8828 -0.4697 -0.0000
vn -0.0056 1.0000 0.0000
vn 0.0000 1.0000 0.0000
vn -0.7071 -0.7071 -0.0000
vn -0.0434 -0.9991 -0.0000
vn -0.3015 -0.9045 -0.3015
vn -0.3015 -0.9045 0.3015
vn 0.8828 0.4697 -0.0000
vn 0.2868 0.9580 -0.0000
vn 0.2868 0.9580 0.0000
vn -0.0040 0.7058 0.7084
vn 0.0244 -0.7142 0.6995
vn 0.2458 -0.7163 0.6531
vn 0.2189 0.7314 0.6459
vn 0.0341 -0.9994 -0.0000
vn 0.3246 -0.9459 -0.0000
vn 0.2189 0.7314 -0.6459
vn 0.2458 -0.7163 -0.6531
vn 0.2867 0.9580 0.0000
vn -0.2855 0.9584 0.0000
vn -0.2855 0.9584 -0.0000
vn 0.0069 1.0000 0.0000
vn 0.0049 0.7055 -0.7087
vn -0.0311 -0.7159 -0.6975
vn -0.2519 -0.7125 -0.6549
vn -0.2180 0.7319 -0.6456
vn -0.3333 -0.9428 -0.0000
vn -0.2180 0.7318 0.6457
vn -0.2519 -0.7125 0.6549
vn 0.0069 1.0000 -0.0000
vn 0.6961 -0.3703 0.6151
vn 0.6961 0.3703 0.6151
vn 0.6961 0.3703 -0.6151
vn 0.6961 -0.3703 -0.6151
vn -0.6961 -0.3703 -0.6151
vn -0.6961 0.3703 -0.6151
vn -0.6961 0.3703 0.6151
vn -0.6961 -0.3703 0.6151
vn 0.0000 0.7071 0.7071
vn 0.3015 -0.9045 -0.3015
vn 0.7071 -0.7071 0.0000
vn 0.3015 -0.9045 0.3015
vn 0.0000 0.7071 -0.7071
vn -0.5974 0.1852 -0.7803
vn -0.9551 0.2962 -0.0000
vn -0.5974 0.1853 0.7802
vn 0.0000 0.1647 0.9863
vn 0.5943 0.1884 -0.7819
vn 0.0000 0.1647 -0.9863
vn 0.9533 0.3022 0.0000
vn 0.5943 0.1884 0.7819
vn -0.8381 -0.1248 -0.5310
vn -0.9909 -0.1344 -0.0000
vn -0.8381 -0.1249 0.5310
vn -0.0184 -0.0500 0.9986
vn 0.8339 -0.1249 -0.5376
vn -0.0184 -0.0500 -0.9986
vn 0.9909 -0.1347 0.0000
vn 0.8339 -0.1249 0.5376
vn 0.0020 -1.0000 -0.0000
# 109 vertex normals

vt 0.2845 0.2709 0.0000
vt 0.2688 0.3606 0.0000
vt 0.0053 0.3330 0.0000
vt 0.0241 0.2255 0.0000
vt 0.9736 0.1956 0.0000
vt 0.9587 0.3038 0.0000
vt 0.6993 0.2498 0.0000
vt 0.7118 0.1595 0.0000
vt 0.0053 0.0199 0.0000
vt 0.2699 0.0196 0.0000
vt 0.2699 0.0243 0.0000
vt 0.0053 0.0245 0.0000
vt 0.9995 0.0018 0.0000
vt 0.9995 0.0065 0.0000
vt 0.7314 0.0054 0.0000
vt 0.7314 0.0007 0.0000
vt 0.4508 0.2999 0.0000
vt 0.4371 0.3781 0.0000
vt 0.5337 0.2151 0.0000
vt 0.5445 0.1365 0.0000
vt 0.4391 0.0197 0.0000
vt 0.4391 0.0243 0.0000
vt 0.5613 0.0052 0.0000
vt 0.5613 0.0005 0.0000
vt 0.6593 0.3363 0.0000
vt 0.6484 0.3986 0.0000
vt 0.3262 0.1702 0.0000
vt 0.3348 0.1075 0.0000
vt 0.6513 0.0196 0.0000
vt 0.6513 0.0243 0.0000
vt 0.3495 0.0054 0.0000
vt 0.3495 0.0008 0.0000
vt 0.9035 0.3789 0.0000
vt 0.8961 0.4213 0.0000
vt 0.0834 0.1163 0.0000
vt 0.0893 0.0737 0.0000
vt 0.9001 0.0198 0.0000
vt 0.9001 0.0245 0.0000
vt 0.1030 0.0060 0.0000
vt 0.1030 0.0014 0.0000
vt 0.9565 0.3881 0.0000
vt 0.9525 0.4156 0.0000
vt 0.0314 0.0937 0.0000
vt 0.0360 0.0663 0.0000
vt 0.9569 0.0198 0.0000
vt 0.9569 0.0245 0.0000
vt 0.0469 0.0062 0.0000
vt 0.0469 0.0016 0.0000
vt 0.9870 0.3935 0.0000
vt 0.0053 0.0621 0.0000
vt 0.9977 0.0199 0.0000
vt 0.9977 0.0245 0.0000
vt 0.0053 0.0065 0.0000
vt 0.0053 0.0018 0.0000
vt 0.1263 0.6783 0.0000
vt 0.0814 0.6778 0.0000
vt 0.0820 0.6218 0.0000
vt 0.0214 0.4454 0.0000
vt 0.0663 0.4426 0.0000
vt 0.0680 0.5144 0.0000
vt 0.0215 0.1784 0.0000
vt 0.0215 0.1830 0.0000
vt 0.0053 0.1830 0.0000
vt 0.0053 0.1784 0.0000
vt 0.0053 0.1160 0.0000
vt 0.0053 0.1114 0.0000
vt 0.0215 0.1114 0.0000
vt 0.0215 0.1160 0.0000
vt 0.2142 0.8841 0.0000
vt 0.1053 0.8912 0.0000
vt 0.1053 0.8801 0.0000
vt 0.2142 0.8801 0.0000
vt 0.0053 0.1672 0.0000
vt 0.0215 0.1672 0.0000
vt 0.1605 0.9583 0.0000
vt 0.0887 0.9582 0.0000
vt 0.0887 0.9471 0.0000
vt 0.1605 0.9471 0.0000
vt 0.0053 0.1003 0.0000
vt 0.0215 0.1003 0.0000
vt 0.1052 0.8959 0.0000
vt 0.2142 0.9031 0.0000
vt 0.2142 0.9070 0.0000
vt 0.1052 0.9070 0.0000
vt 0.0215 0.1272 0.0000
vt 0.0053 0.1272 0.0000
vt 0.0887 0.9629 0.0000
vt 0.1605 0.9629 0.0000
vt 0.1605 0.9740 0.0000
vt 0.0887 0.9740 0.0000
vt 0.0215 0.1941 0.0000
vt 0.0053 0.1941 0.0000
vt 0.0269 0.8959 0.0000
vt 0.0269 0.8912 0.0000
vt 0.0269 0.9070 0.0000
vt 0.0270 0.6707 0.0000
vt 0.0719 0.6696 0.0000
vt 0.0684 0.7479 0.0000
vt 0.0280 0.7489 0.0000
vt 0.3157 0.9740 0.0000
vt 0.3157 0.9629 0.0000
vt 0.3941 0.9629 0.0000
vt 0.3941 0.9740 0.0000
vt 0.3157 0.9582 0.0000
vt 0.3941 0.9582 0.0000
vt 0.3157 0.9471 0.0000
vt 0.3941 0.9471 0.0000
vt 0.1263 0.7566 0.0000
vt 0.0859 0.7561 0.0000
vt 0.0270 0.8801 0.0000
vt 0.3306 0.8959 0.0000
vt 0.3306 0.8912 0.0000
vt 0.3937 0.8912 0.0000
vt 0.3937 0.8959 0.0000
vt 0.3306 0.8801 0.0000
vt 0.3937 0.8801 0.0000
vt 0.1287 0.4530 0.0000
vt 0.0838 0.4508 0.0000
vt 0.0898 0.3895 0.0000
vt 0.1302 0.3899 0.0000
vt 0.0270 0.9582 0.0000
vt 0.0270 0.9471 0.0000
vt 0.0270 0.9629 0.0000
vt 0.0270 0.9740 0.0000
vt 0.0190 0.3823 0.0000
vt 0.0594 0.3813 0.0000
vt 0.3306 0.9070 0.0000
vt 0.3937 0.9070 0.0000
vt 0.0053 0.8959 0.0000
vt 0.0053 0.8912 0.0000
vt 0.0053 0.9070 0.0000
vt 0.0568 0.7662 0.0000
vt 0.0406 0.7666 0.0000
vt 0.4157 0.9628 0.0000
vt 0.4157 0.9739 0.0000
vt 0.4157 0.9582 0.0000
vt 0.4157 0.9471 0.0000
vt 0.1141 0.7744 0.0000
vt 0.0978 0.7742 0.0000
vt 0.0053 0.8801 0.0000
vt 0.4153 0.8912 0.0000
vt 0.4153 0.8959 0.0000
vt 0.4153 0.8801 0.0000
vt 0.1021 0.3716 0.0000
vt 0.1183 0.3718 0.0000
vt 0.0053 0.9582 0.0000
vt 0.0053 0.9471 0.0000
vt 0.0053 0.9629 0.0000
vt 0.0053 0.9740 0.0000
vt 0.0307 0.3641 0.0000
vt 0.0469 0.3637 0.0000
vt 0.4153 0.9070 0.0000
vt 0.0692 0.5607 0.0000
vt 0.0705 0.6135 0.0000
vt 0.0243 0.5618 0.0000
vt 0.0830 0.5227 0.0000
vt 0.2596 0.9471 0.0000
vt 0.2596 0.9583 0.0000
vt 0.2596 0.9629 0.0000
vt 0.2596 0.9740 0.0000
vt 0.0392 0.0369 0.0000
vt 0.0954 0.0292 0.0000
vt 0.3435 0.0449 0.0000
vt 0.5557 0.0557 0.0000
vt 0.7247 0.0661 0.0000
vt 0.9896 0.0801 0.0000
vt 0.0826 0.5689 0.0000
vt 0.1274 0.5694 0.0000
vt 0.0441 0.1105 0.0000
vt 0.3007 0.1779 0.0000
vt 0.4648 0.2196 0.0000
vt 0.6702 0.2740 0.0000
vt 0.9112 0.3347 0.0000
vt 0.9624 0.3592 0.0000
vt 0.0051 0.8019 0.0000
vt 0.0051 0.7908 0.0000
vt 0.3482 0.7909 0.0000
vt 0.3479 0.8020 0.0000
vt 0.0053 0.8068 0.0000
vt 0.3478 0.8068 0.0000
vt 0.5076 0.4632 0.0000
vt 0.5118 0.4167 0.0000
vt 0.8696 0.4491 0.0000
vt 0.8645 0.4954 0.0000
vt 0.0053 0.8175 0.0000
vt 0.3478 0.8179 0.0000
vt 0.9803 0.6591 0.0000
vt 0.9737 0.7120 0.0000
vt 0.6171 0.6671 0.0000
vt 0.6247 0.6145 0.0000
vt 0.4101 0.8290 0.0000
vt 0.4100 0.8403 0.0000
vt 0.0676 0.8397 0.0000
vt 0.0676 0.8285 0.0000
vt 0.4100 0.8448 0.0000
vt 0.0676 0.8442 0.0000
vt 0.4101 0.8555 0.0000
vt 0.0676 0.8557 0.0000
vt 0.5028 0.5163 0.0000
vt 0.8608 0.5484 0.0000
vt 0.9861 0.6128 0.0000
vt 0.6296 0.5681 0.0000
vt 0.4067 0.7899 0.0000
vt 0.4067 0.8016 0.0000
vt 0.4067 0.8066 0.0000
vt 0.9226 0.4216 0.0000
vt 0.9146 0.4984 0.0000
vt 0.4067 0.8183 0.0000
vt 0.5630 0.6936 0.0000
vt 0.5751 0.6067 0.0000
vt 0.0078 0.8404 0.0000
vt 0.0078 0.8287 0.0000
vt 0.0078 0.8453 0.0000
vt 0.0079 0.8571 0.0000
vt 0.9080 0.5859 0.0000
vt 0.5837 0.5300 0.0000
vt 0.4688 0.9486 0.0000
vt 0.4576 0.9486 0.0000
vt 0.4712 0.8408 0.0000
vt 0.4735 0.9486 0.0000
vt 0.9861 0.5086 0.0000
vt 0.4847 0.9486 0.0000
vt 0.5031 0.6014 0.0000
vt 0.5390 0.7539 0.0000
vt 0.5469 0.7618 0.0000
vt 0.5502 0.7651 0.0000
vt 0.5581 0.7731 0.0000
vt 0.2142 0.8665 0.0000
vt 0.3305 0.8665 0.0000
vt 0.1053 0.8665 0.0000
vt 0.0270 0.8665 0.0000
vt 0.0053 0.8665 0.0000
vt 0.0053 0.1536 0.0000
vt 0.0215 0.1536 0.0000
vt 0.3941 0.9334 0.0000
vt 0.4157 0.9334 0.0000
vt 0.3156 0.9335 0.0000
vt 0.2596 0.9335 0.0000
vt 0.2068 0.9471 0.0000
vt 0.2068 0.9335 0.0000
vt 0.1605 0.9335 0.0000
vt 0.0887 0.9335 0.0000
vt 0.0270 0.9334 0.0000
vt 0.0053 0.9334 0.0000
vt 0.0053 0.0866 0.0000
vt 0.0215 0.0866 0.0000
vt 0.3937 0.8665 0.0000
vt 0.4153 0.8664 0.0000
vt 0.2142 0.9207 0.0000
vt 0.1052 0.9207 0.0000
vt 0.3306 0.9207 0.0000
vt 0.3937 0.9206 0.0000
vt 0.4153 0.9206 0.0000
vt 0.0215 0.1408 0.0000
vt 0.0053 0.1408 0.0000
vt 0.0269 0.9876 0.0000
vt 0.0053 0.9876 0.0000
vt 0.0887 0.9877 0.0000
vt 0.1605 0.9877 0.0000
vt 0.2068 0.9740 0.0000
vt 0.2068 0.9877 0.0000
vt 0.2596 0.9877 0.0000
vt 0.3157 0.9876 0.0000
vt 0.3941 0.9876 0.0000
vt 0.4157 0.9876 0.0000
vt 0.0215 0.2078 0.0000
vt 0.0053 0.2078 0.0000
vt 0.0269 0.9207 0.0000
vt 0.0053 0.9206 0.0000
# 269 texture coords

o Box001
g Box001
usemtl wire_153228153
s off
f 1/1/1 2/2/2 3/3/3 4/4/4 
f 5/5/5 6/6/6 7/7/7 8/8/8 
s 16
f 3/9/3 2/10/2 7/11/7 6/12/6 
s 64
f 9/13/9 10/14/10 11/15/11 12/16/12 
s off
f 2/2/2 1/1/1 13/17/13 14/18/14 
f 8/8/8 7/7/7 15/19/15 16/20/16 
f 7/11/7 2/10/2 14/21/14 15/22/15 
f 12/16/12 11/15/11 17/23/17 18/24/18 
f 14/18/14 13/17/13 19/25/19 20/26/20 
f 16/20/16 15/19/15 21/27/21 22/28/22 
f 15/22/15 14/21/14 20/29/20 21/30/21 
f 18/24/18 17/23/17 23/31/23 24/32/24 
f 20/26/20 19/25/19 25/33/25 26/34/26 
f 22/28/22 21/27/21 27/35/27 28/36/28 
f 21/30/21 20/29/20 26/37/26 27/38/27 
f 24/32/24 23/31/23 29/39/29 30/40/30 
f 26/34/26 25/33/25 31/41/31 32/42/32 
f 28/36/28 27/35/27 33/43/33 34/44/34 
f 27/38/27 26/37/26 32/45/32 33/46/33 
f 30/40/30 29/39/29 35/47/35 36/48/36 
f 32/42/32 31/41/31 37/49/37 
f 34/44/34 33/43/33 38/50/38 
f 33/46/33 32/45/32 37/51/37 38/52/38 
f 36/48/36 35/47/35 38/53/38 37/54/37 
s 1
f 39/55/39 40/56/40 41/57/41 
f 42/58/42 43/59/43 44/60/44 
f 45/61/45 46/62/46 47/63/47 48/64/47 
f 49/65/48 50/66/49 51/67/50 52/68/50 
f 4/69/4 3/70/3 53/71/51 54/72/52 
f 45/61/45 48/64/47 55/73/47 56/74/45 
f 57/75/53 58/76/54 59/77/54 60/78/55 
f 51/67/50 50/66/49 61/79/49 62/80/50 
f 6/81/6 5/82/5 63/83/52 64/84/51 
f 49/65/48 52/68/50 65/85/50 66/86/48 
f 67/87/54 68/88/53 69/89/56 70/90/54 
f 47/63/47 46/62/46 71/91/57 72/92/47 
f 3/70/3 6/81/6 73/93/58 74/94/59 
f 6/81/6 64/84/51 75/95/58 73/93/58 
f 76/96/60 77/97/61 78/98/62 79/99/63 
f 80/100/64 81/101/64 82/102/65 83/103/65 
f 81/101/64 84/104/64 85/105/65 82/102/65 
f 84/104/64 86/106/64 87/107/65 85/105/65 
f 40/56/40 39/55/39 88/108/66 89/109/67 
f 53/71/51 3/70/3 74/94/59 90/110/68 
f 10/111/10 9/112/9 91/113/69 92/114/70 
f 9/112/9 93/115/71 94/116/69 91/113/69 
f 95/117/72 96/118/73 97/119/74 98/120/75 
f 59/77/54 58/76/54 99/121/76 100/122/76 
f 58/76/54 67/87/54 101/123/76 99/121/76 
f 67/87/54 70/90/54 102/124/76 101/123/76 
f 43/59/43 42/58/42 103/125/77 104/126/78 
f 105/127/79 10/111/10 92/114/70 106/128/70 
f 74/94/59 73/93/58 46/129/46 45/130/45 
f 73/93/58 75/95/58 71/131/57 46/129/46 
f 79/99/63 78/98/62 107/132/80 108/133/81 
f 83/103/65 82/102/65 47/134/47 72/135/47 
f 82/102/65 85/105/65 48/136/47 47/134/47 
f 85/105/65 87/107/65 55/137/47 48/136/47 
f 89/109/67 88/108/66 109/138/82 110/139/83 
f 90/110/68 74/94/59 45/130/45 56/140/45 
f 92/114/70 91/113/69 50/141/49 49/142/48 
f 91/113/69 94/116/69 61/143/49 50/141/49 
f 98/120/75 97/119/74 111/144/84 112/145/85 
f 100/122/76 99/121/76 51/146/50 62/147/50 
f 99/121/76 101/123/76 52/148/50 51/146/50 
f 101/123/76 102/124/76 65/149/50 52/148/50 
f 104/126/78 103/125/77 113/150/86 114/151/87 
f 106/128/70 92/114/70 49/142/48 66/152/48 
f 68/88/53 67/87/54 58/76/54 57/75/53 
f 115/153/44 116/154/44 76/96/60 117/155/88 
f 118/156/41 96/118/73 95/117/72 
f 119/157/89 86/106/64 84/104/64 120/158/90 
f 120/158/90 84/104/64 81/101/64 121/159/90 
f 121/159/90 81/101/64 80/100/64 122/160/91 
f 116/154/44 77/97/61 76/96/60 
s off
f 38/50/38 35/161/35 34/44/34 
f 34/44/34 35/161/35 29/162/29 28/36/28 
f 28/36/28 29/162/29 23/163/23 22/28/22 
f 22/28/22 23/163/23 17/164/17 16/20/16 
f 16/20/16 17/164/17 11/165/11 8/8/8 
f 8/8/8 11/165/11 10/166/10 5/5/5 
s 1
f 5/82/5 10/111/10 105/127/79 63/83/52 
f 117/155/88 42/58/42 44/60/44 115/153/44 
f 123/167/41 118/156/41 95/117/72 124/168/92 
f 54/72/52 93/115/71 9/112/9 4/69/4 
s off
f 4/4/4 9/169/9 12/170/12 1/1/1 
f 1/1/1 12/170/12 18/171/18 13/17/13 
f 13/17/13 18/171/18 24/172/24 19/25/19 
f 19/25/19 24/172/24 30/173/30 25/33/25 
f 25/33/25 30/173/30 36/174/36 31/41/31 
f 31/41/31 36/174/36 37/49/37 
s 1
f 41/57/41 123/167/41 124/168/92 39/55/39 
f 57/175/53 60/176/55 125/177/93 126/178/94 
f 68/179/53 57/175/53 126/178/94 127/180/94 
f 128/181/44 69/182/56 129/183/95 130/184/96 
f 69/185/56 68/179/53 127/180/94 129/186/95 
f 131/187/41 119/188/89 132/189/97 133/190/98 
f 119/191/89 120/192/90 134/193/99 132/194/97 
f 120/192/90 121/195/90 135/196/99 134/193/99 
f 121/195/90 122/197/91 136/198/100 135/196/99 
f 122/199/91 128/181/44 130/184/96 136/200/100 
f 60/201/55 131/187/41 133/190/98 125/202/93 
f 126/178/94 125/177/93 137/203/101 138/204/102 
f 127/180/94 126/178/94 138/204/102 139/205/102 
f 130/184/96 129/183/95 140/206/103 141/207/104 
f 129/186/95 127/180/94 139/205/102 140/208/103 
f 133/190/98 132/189/97 142/209/105 143/210/106 
f 132/194/97 134/193/99 144/211/107 142/212/105 
f 134/193/99 135/196/99 145/213/107 144/211/107 
f 135/196/99 136/198/100 146/214/108 145/213/107 
f 136/200/100 130/184/96 141/207/104 146/215/108 
f 125/202/93 133/190/98 143/210/106 137/216/101 
f 138/217/102 137/218/101 147/219/109 
f 139/220/102 138/217/102 147/219/109 
f 141/207/104 140/206/103 147/221/109 
f 140/222/103 139/220/102 147/219/109 
f 143/210/106 142/209/105 147/223/109 
f 142/224/105 144/225/107 147/219/109 
f 144/225/107 145/226/107 147/219/109 
f 145/226/107 146/227/108 147/219/109 
f 146/215/108 141/207/104 147/221/109 
f 137/216/101 143/210/106 147/223/109 
f 93/115/71 54/72/52 124/228/92 95/229/72 
f 54/72/52 53/71/51 39/230/39 124/228/92 
f 53/71/51 90/110/68 88/231/66 39/230/39 
f 90/110/68 56/140/45 109/232/82 88/231/66 
f 56/74/45 55/73/47 110/233/83 109/234/82 
f 55/137/47 87/107/65 89/235/67 110/236/83 
f 87/107/65 86/106/64 40/237/40 89/235/67 
f 86/106/64 119/157/89 41/238/41 40/237/40 
f 119/157/89 131/239/41 123/240/41 41/238/41 
f 131/239/41 60/78/55 118/241/41 123/240/41 
f 60/78/55 59/77/54 96/242/73 118/241/41 
f 59/77/54 100/122/76 97/243/74 96/242/73 
f 100/122/76 62/147/50 111/244/84 97/243/74 
f 62/80/50 61/79/49 112/245/85 111/246/84 
f 61/143/49 94/116/69 98/247/75 112/248/85 
f 94/116/69 93/115/71 95/229/72 98/247/75 
f 64/84/51 63/83/52 117/249/88 76/250/60 
f 63/83/52 105/127/79 42/251/42 117/249/88 
f 105/127/79 106/128/70 103/252/77 42/251/42 
f 106/128/70 66/152/48 113/253/86 103/252/77 
f 66/86/48 65/85/50 114/254/87 113/255/86 
f 65/149/50 102/124/76 104/256/78 114/257/87 
f 102/124/76 70/90/54 43/258/43 104/256/78 
f 70/90/54 69/89/56 44/259/44 43/258/43 
f 69/89/56 128/260/44 115/261/44 44/259/44 
f 128/260/44 122/160/91 116/262/44 115/261/44 
f 122/160/91 80/100/64 77/263/61 116/262/44 
f 80/100/64 83/103/65 78/264/62 77/263/61 
f 83/103/65 72/135/47 107/265/80 78/264/62 
f 72/92/47 71/91/57 108/266/81 107/267/80 
f 71/131/57 75/95/58 79/268/63 108/269/81 
f 75/95/58 64/84/51 76/250/60 79/268/63 
# 136 polygons - 18 triangles

